<svg width="65" height="64" viewBox="0 0 65 64" fill="none" xmlns="http://www.w3.org/2000/svg">
<path fill-rule="evenodd" clip-rule="evenodd" d="M18.6159 13.8226C19.9221 12.9497 21.4579 12.4839 23.0289 12.4839C24.0375 12.4839 24.8552 13.3015 24.8552 14.3102C24.8552 15.3188 24.0375 16.1365 23.0289 16.1365C22.1803 16.1365 21.3507 16.3881 20.6452 16.8596C19.9396 17.331 19.3896 18.0011 19.0649 18.7851C18.7402 19.5691 18.6552 20.4318 18.8207 21.2641C18.9863 22.0964 19.3949 22.8609 19.995 23.461C20.595 24.061 21.3595 24.4697 22.1918 24.6352C23.0241 24.8008 23.8868 24.7158 24.6708 24.3911C25.4548 24.0663 26.1249 23.5164 26.5964 22.8108C27.0678 22.1052 27.3195 21.2757 27.3195 20.4271C27.3195 19.4184 28.1371 18.6008 29.1458 18.6008C30.1544 18.6008 30.9721 19.4184 30.9721 20.4271C30.9721 21.9981 30.5062 23.5338 29.6334 24.8401C28.7606 26.1463 27.52 27.1644 26.0686 27.7656C24.6172 28.3668 23.0201 28.5241 21.4792 28.2176C19.9384 27.9111 18.5231 27.1546 17.4122 26.0437C16.3013 24.9329 15.5448 23.5175 15.2383 21.9767C14.9318 20.4359 15.0891 18.8388 15.6903 17.3873C16.2915 15.9359 17.3096 14.6954 18.6159 13.8226Z" fill="#8D98AA"/>
<path fill-rule="evenodd" clip-rule="evenodd" d="M62.7088 23.0767C63.7029 23.0767 64.5088 23.8993 64.5088 24.9141V40.3C64.5088 48.1708 62.9864 54.1584 59.1143 58.1332C55.2398 62.1106 49.4004 63.6751 41.7278 63.6751H23.7444C16.0742 63.6751 10.235 62.1112 6.35986 58.1343C2.4871 54.1599 0.963379 48.1723 0.963379 40.3V34.1138C0.963379 33.099 1.76927 32.2763 2.7634 32.2763C3.75752 32.2763 4.56342 33.099 4.56342 34.1138V40.3C4.56342 47.8135 6.03972 52.5947 8.91224 55.5427C11.7824 58.4882 16.4337 60.0002 23.7444 60.0002H41.7278C49.0409 60.0002 53.6921 58.4876 56.5616 55.5419C59.4336 52.5937 60.9088 47.8125 60.9088 40.3V24.9141C60.9088 23.8993 61.7147 23.0767 62.7088 23.0767Z" fill="#8D98AA"/>
<path fill-rule="evenodd" clip-rule="evenodd" d="M6.43477 5.55674C10.3614 1.66098 16.2784 0.128418 24.0563 0.128418H36.2163C37.2188 0.128418 38.0316 0.934753 38.0316 1.92942C38.0316 2.92408 37.2188 3.73042 36.2163 3.73042H24.0563C16.6366 3.73042 11.9147 5.21393 9.00197 8.10374C6.08924 10.9935 4.59395 15.6783 4.59395 23.0395C4.59395 24.0342 3.78122 24.8405 2.77867 24.8405C1.77611 24.8405 0.963379 24.0342 0.963379 23.0395C0.963379 15.3229 2.5081 9.4525 6.43477 5.55674Z" fill="#8D98AA"/>
<path fill-rule="evenodd" clip-rule="evenodd" d="M41.5605 10.7188C41.5605 9.7439 42.4065 8.95361 43.45 8.95361H60.8529C61.8964 8.95361 62.7424 9.7439 62.7424 10.7188C62.7424 11.6936 61.8964 12.4839 60.8529 12.4839H43.45C42.4065 12.4839 41.5605 11.6936 41.5605 10.7188Z" fill="#8D98AA"/>
<path fill-rule="evenodd" clip-rule="evenodd" d="M52.1548 0.128418C53.1297 0.128418 53.92 0.974346 53.92 2.01785V19.4208C53.92 20.4643 53.1297 21.3102 52.1548 21.3102C51.1799 21.3102 50.3896 20.4643 50.3896 19.4208V2.01785C50.3896 0.974346 51.1799 0.128418 52.1548 0.128418Z" fill="#8D98AA"/>
<path fill-rule="evenodd" clip-rule="evenodd" d="M50.474 34.8574L37.9815 45.6716L37.9483 45.6996C36.4295 46.9518 34.5238 47.6364 32.5571 47.6364C30.5904 47.6364 28.6848 46.9518 27.166 45.6996C27.1496 45.6861 27.1335 45.6723 27.1176 45.6582L26.1532 44.8044C25.3457 44.1528 24.3538 43.7721 23.3179 43.7168C22.2757 43.6611 21.2427 43.9376 20.3671 44.5065L5.54661 54.5374C4.71936 55.0973 3.59581 54.8791 3.0371 54.0501C2.47839 53.2211 2.69608 52.0952 3.52333 51.5353L18.3809 41.4792C19.9013 40.4855 21.6978 40.0023 23.5105 40.0992C25.3231 40.1961 27.058 40.8682 28.4643 42.0184C28.4825 42.0333 28.5005 42.0486 28.5182 42.0642L29.4854 42.9206C30.3534 43.6275 31.438 44.0137 32.5571 44.0137C33.6793 44.0137 34.7669 43.6254 35.6361 42.9147L48.1286 32.1006L48.1618 32.0725C49.6806 30.8204 51.5862 30.1357 53.553 30.1357C55.5197 30.1357 57.4253 30.8204 58.9441 32.0725L58.9774 32.1006L63.8817 36.3464C64.6371 37.0004 64.7204 38.1442 64.0679 38.9013C63.4153 39.6583 62.2739 39.7418 61.5185 39.0878L56.6319 34.8574C55.7627 34.1468 54.6751 33.7584 53.553 33.7584C52.4308 33.7584 51.3432 34.1468 50.474 34.8574Z" fill="#8D98AA"/>
</svg>
