<svg width="61" height="61" viewBox="0 0 61 61" fill="none" xmlns="http://www.w3.org/2000/svg">
<path d="M18.5665 17.5312H15.8477L21.9571 31.6094C22.8946 29.2448 23.8321 26.8906 24.7696 24.5469C25.7175 22.2031 26.6602 19.8542 27.5977 17.5L23.5977 17.4375V16.8594L31.754 16.9531V17.5312L28.1602 17.5L19.2696 39.8281L9.31647 17.5312H6.44147V16.9531H18.5665V17.5312ZM40.4258 38.4219H42.8008L40.5821 33.1406H33.5196L31.4102 38.5156H35.4415V39H27.2383V38.4531H30.8321L36.6446 23.8281L39.7227 16.0938L49.6758 38.4219H52.5508V39H40.4258V38.4219ZM33.7383 32.5625H40.3321L36.9415 24.5625L33.7383 32.5625Z" fill="black"/>
<path fill-rule="evenodd" clip-rule="evenodd" d="M59.8387 1.00001V9.19178H58.8387V1.00001L1 1L1 60H59.019V50.9726H60.019V60.1644H59.8387V61H1H0L2.66639e-06 60V1V8.58307e-06V3.25028e-06L58.8387 4.45598e-08L59.8387 0V1.00001Z" fill="black"/>
</svg>
