<svg width="45" height="44" viewBox="0 0 45 44" fill="none" xmlns="http://www.w3.org/2000/svg">
<g clip-path="url(#clip0_1271_5476)">
<g clip-path="url(#clip1_1271_5476)">
<path d="M22.5463 16.508C20.2911 16.508 18.463 18.3361 18.463 20.5913C18.463 22.8465 20.2911 24.6746 22.5463 24.6746C24.8015 24.6746 26.6296 22.8465 26.6296 20.5913C26.6296 18.3361 24.8015 16.508 22.5463 16.508ZM18.6964 25.8413C17.693 25.8413 16.601 26.5441 16.5722 27.7919C16.552 28.6658 16.7084 29.9534 17.6159 31.0301C18.5452 32.1328 20.1129 32.8413 22.5463 32.8413C24.9797 32.8413 26.5474 32.1328 27.4767 31.0301C28.3842 29.9534 28.5405 28.6658 28.5204 27.7919C28.4916 26.5441 27.3996 25.8413 26.3962 25.8413H18.6964ZM28.2589 10.6746H29.838C31.6099 10.6746 33.0463 12.1111 33.0463 13.883V33.133C33.0463 34.9049 31.6099 36.3413 29.838 36.3413H15.2546C13.4827 36.3413 12.0463 34.9049 12.0463 33.133V13.883C12.0463 12.1111 13.4827 10.6746 15.2546 10.6746H16.8337C17.2146 9.32801 18.4527 8.34131 19.9213 8.34131H25.1713C26.6399 8.34131 27.878 9.32801 28.2589 10.6746ZM16.8337 12.4246H15.2546C14.4492 12.4246 13.7963 13.0776 13.7963 13.883V33.133C13.7963 33.9384 14.4492 34.5913 15.2546 34.5913H29.838C30.6434 34.5913 31.2963 33.9384 31.2963 33.133V13.883C31.2963 13.0776 30.6434 12.4246 29.838 12.4246H28.2589C27.878 13.7713 26.6399 14.758 25.1713 14.758H19.9213C18.4527 14.758 17.2146 13.7713 16.8337 12.4246ZM18.463 11.5496C18.463 12.3551 19.1159 13.008 19.9213 13.008H25.1713C25.9767 13.008 26.6296 12.3551 26.6296 11.5496C26.6296 10.7442 25.9767 10.0913 25.1713 10.0913H19.9213C19.1159 10.0913 18.463 10.7442 18.463 11.5496Z" fill="#5D7285"/>
</g>
</g>
<defs>
<clipPath id="clip0_1271_5476">
<rect width="29.2716" height="29.2716" fill="white" transform="translate(7.6358 7.4043)"/>
</clipPath>
<clipPath id="clip1_1271_5476">
<rect width="28" height="28" fill="white" transform="translate(8.0463 8.34131)"/>
</clipPath>
</defs>
</svg>
