<svg width="45" height="44" viewBox="0 0 45 44" fill="none" xmlns="http://www.w3.org/2000/svg">
<path d="M18.777 32.6537V28.9244C18.777 27.9724 19.5544 27.2006 20.5133 27.2006H24.0188C24.4793 27.2006 24.921 27.3823 25.2466 27.7055C25.5723 28.0288 25.7552 28.4672 25.7552 28.9244V32.6537C25.7523 33.0495 25.9086 33.4301 26.1895 33.711C26.4704 33.9919 26.8526 34.1498 27.2513 34.1498H29.6429C30.7599 34.1527 31.8321 33.7142 32.6229 32.9312C33.4138 32.1481 33.8582 31.0848 33.8582 29.976V19.3517C33.8582 18.4559 33.4583 17.6063 32.7662 17.0316L24.6304 10.5812C23.2151 9.45017 21.1874 9.48669 19.8144 10.6679L11.8643 17.0316C11.1395 17.5894 10.7063 18.4415 10.6849 19.3517V29.9651C10.6849 32.2763 12.5721 34.1498 14.9002 34.1498H17.2372C18.0653 34.1498 18.7382 33.4866 18.7442 32.6646L18.777 32.6537Z" fill="#5D7285"/>
</svg>
