<svg width="45" height="45" viewBox="0 0 45 45" fill="none" xmlns="http://www.w3.org/2000/svg">
<path d="M24.7089 13.0159C24.8002 12.8976 24.9699 12.8818 25.0804 12.9815L26.0264 13.8343L23.0478 17.6408H25.0206L27.1832 14.8772L28.88 16.407C28.9843 16.501 28.9964 16.663 28.9072 16.7722L28.1973 17.6408H30.194C30.7014 16.8837 30.5856 15.8448 29.8989 15.2257L26.0994 11.8002C25.3255 11.1025 24.1373 11.2127 23.4988 12.0413L19.184 17.6408H21.1452L24.7089 13.0159ZM15.3571 17.1158C14.9317 17.1158 14.5868 17.4684 14.5868 17.9033C14.5868 18.3382 14.9317 18.6908 15.3571 18.6908L28.7085 18.6908C30.5519 18.6908 32.0463 20.2186 32.0463 22.1033V28.9283C32.0463 30.813 30.5519 32.3408 28.7085 32.3408H16.3841C14.5407 32.3408 13.0463 30.813 13.0463 28.9283V17.9033C13.0463 16.5985 14.0809 15.5408 15.3571 15.5408H19.7939L18.5701 17.1158H15.3571ZM25.8841 25.7783C25.8841 26.2132 26.229 26.5658 26.6544 26.5658H28.7085C29.1339 26.5658 29.4787 26.2132 29.4787 25.7783C29.4787 25.3434 29.1339 24.9908 28.7085 24.9908H26.6544C26.229 24.9908 25.8841 25.3434 25.8841 25.7783Z" fill="#09234F"/>
</svg>
