<svg width="45" height="45" viewBox="0 0 45 45" fill="none" xmlns="http://www.w3.org/2000/svg">
<path d="M22.2095 25.6808C26.3943 25.6808 29.9676 26.3443 29.9676 28.9992C29.9676 31.653 26.4172 32.3406 22.2095 32.3406C18.0246 32.3406 14.4513 31.6771 14.4513 29.0233C14.4513 26.3684 18.0017 25.6808 22.2095 25.6808ZM28.9005 24.0822C30.5004 24.0525 32.2204 24.2722 32.856 24.4282C34.2025 24.6929 35.0882 25.2333 35.4552 26.0187C35.7653 26.6635 35.7653 27.4115 35.4552 28.0552C34.8938 29.2733 33.0843 29.6644 32.381 29.7654C32.2357 29.7874 32.1189 29.6611 32.1341 29.515C32.4934 26.1395 29.6355 24.5391 28.8961 24.1711C28.8645 24.1547 28.8579 24.1294 28.8612 24.114C28.8634 24.103 28.8765 24.0855 28.9005 24.0822ZM15.3423 24.0799L15.6436 24.0826C15.6676 24.0859 15.6796 24.1035 15.6818 24.1134C15.6851 24.1298 15.6785 24.154 15.6479 24.1716C14.9075 24.5396 12.0495 26.14 12.4088 29.5143C12.4241 29.6615 12.3083 29.7867 12.1631 29.7659C11.4598 29.6648 9.65023 29.2738 9.0889 28.0556C8.77766 27.4108 8.77766 26.6639 9.0889 26.0191C9.45584 25.2338 10.3404 24.6933 11.687 24.4275C12.3236 24.2726 14.0426 24.053 15.6436 24.0826L15.3423 24.0799ZM22.2095 12.8262C25.0587 12.8262 27.3433 15.1219 27.3433 17.9888C27.3433 20.8546 25.0587 23.1525 22.2095 23.1525C19.3602 23.1525 17.0756 20.8546 17.0756 17.9888C17.0756 15.1219 19.3602 12.8262 22.2095 12.8262ZM29.179 13.6871C31.931 13.6871 34.0922 16.2915 33.3562 19.1924C32.8593 21.1454 31.0606 22.4427 29.0567 22.3899C28.8557 22.3844 28.6581 22.3658 28.4669 22.3328C28.3283 22.3087 28.2584 22.1516 28.337 22.0351C29.1014 20.9038 29.5372 19.5428 29.5372 18.0819C29.5372 16.5573 29.061 15.1359 28.2343 13.9705C28.2081 13.9343 28.1885 13.8782 28.2147 13.8365C28.2365 13.8025 28.2769 13.7849 28.3151 13.7761C28.5936 13.719 28.8798 13.6871 29.179 13.6871ZM15.3634 13.687C15.6627 13.687 15.9488 13.7189 16.2284 13.776C16.2655 13.7848 16.307 13.8034 16.3288 13.8364C16.3539 13.8781 16.3354 13.9342 16.3092 13.9704C15.4825 15.1358 15.0063 16.5572 15.0063 18.0818C15.0063 19.5427 15.4421 20.9037 16.2065 22.035C16.2851 22.1515 16.2153 22.3085 16.0766 22.3327C15.8844 22.3668 15.6878 22.3843 15.4868 22.3898C13.4829 22.4426 11.6842 21.1453 11.1873 19.1923C10.4502 16.2914 12.6114 13.687 15.3634 13.687Z" fill="#5D7285"/>
</svg>
