<svg width="39" height="39" viewBox="0 0 39 39" fill="none" xmlns="http://www.w3.org/2000/svg">
<path d="M26.4583 18.619C27.4201 17.9626 28.1019 17.0025 28.4252 15.9273C28.5244 16.0631 28.6185 16.2042 28.7071 16.3507C29.3113 17.3489 29.6358 18.5537 29.6358 19.9908C29.6358 22.1967 28.8029 23.7399 27.9552 24.7289C27.5348 25.2194 27.1135 25.5709 26.7937 25.8019C26.7379 25.8422 26.6851 25.8789 26.6358 25.9121V27.7408C26.6358 28.7073 25.8523 29.4908 24.8858 29.4908H23.6358C22.8074 29.4908 22.1358 28.8192 22.1358 27.9908H20.1358C20.1358 28.8192 19.4642 29.4908 18.6358 29.4908H17.3858C16.4193 29.4908 15.6358 28.7073 15.6358 27.7408V27.0582C15.4977 27.0117 15.3411 26.9539 15.1715 26.8829C14.5755 26.6334 13.7954 26.211 13.1055 25.5211C12.3214 24.7371 11.7963 23.919 11.5009 23.3901C11.4137 23.2341 11.2835 23.1507 11.172 23.1322C10.2855 22.9844 9.6358 22.2174 9.6358 21.3187V19.5658C9.6358 18.7231 10.2451 18.0039 11.0763 17.8653C11.1632 17.8509 11.2913 17.7646 11.3523 17.5818C11.5447 17.0056 11.9179 16.148 12.6055 15.4604C13.1679 14.898 13.7907 14.4849 14.2637 14.2146C14.4001 14.1367 14.5256 14.0697 14.6358 14.0136V11.1619C14.6358 10.224 15.7664 9.83905 16.3757 10.4457C16.7061 10.7748 17.1859 11.2136 17.7169 11.5801C18.247 11.9458 18.7535 12.1869 19.171 12.24C18.6866 13.2025 18.5137 14.3164 18.7212 15.4149C18.902 16.3726 19.6348 16.9777 20.3232 17.2627L24.0189 18.7931C24.7073 19.0782 25.6533 19.1684 26.4583 18.619ZM15.6358 18.4908C16.1881 18.4908 16.6358 18.043 16.6358 17.4908C16.6358 16.9385 16.1881 16.4908 15.6358 16.4908C15.0835 16.4908 14.6358 16.9385 14.6358 17.4908C14.6358 18.043 15.0835 18.4908 15.6358 18.4908ZM25.8946 17.793C26.8468 17.1431 27.4557 16.1206 27.6024 15.0121C27.6024 15.0121 27.6024 15.0121 27.6024 15.0121C27.6916 14.3383 27.61 13.6327 27.3312 12.9597C26.4856 10.9188 24.1457 9.9498 22.1048 10.7954C20.3244 11.533 19.3597 13.4078 19.7037 15.2293C19.7284 15.3596 19.7727 15.4814 19.833 15.594C19.8829 15.6873 19.9437 15.7742 20.0134 15.8544C20.1962 16.0647 20.4397 16.2286 20.7058 16.3388L24.4015 17.8692C24.8916 18.0722 25.4564 18.092 25.8946 17.793Z" fill="#5D7285"/>
</svg>
